<svg width="16" height="19" viewBox="0 0 16 19" fill="none" xmlns="http://www.w3.org/2000/svg">
<g clip-path="url(#clip0_204_439)">
<path d="M0 19L0.0346944 18.5439C0.0383373 18.4966 0.127155 17.371 0.457098 16.1264C0.922523 14.3708 1.62612 13.2755 2.5483 12.8713C2.56079 12.8658 2.5738 12.8608 2.58785 12.856L2.59115 12.8548C2.73287 12.8045 2.89178 12.7535 3.06351 12.7028C3.58931 12.548 4.24832 12.3936 5.02236 12.2439L5.99467 12.056L5.9853 12.0711C6.04567 12.0611 6.09944 12.0523 6.14559 12.045L6.20405 11.7782V10.8106C5.84912 10.6398 5.53271 10.4255 5.26279 10.1729C4.70421 9.65014 4.29291 8.96844 4.03929 8.14595C3.74959 8.06613 3.50396 7.94166 3.30845 7.7757C2.88449 7.41561 2.72646 6.83573 2.93254 6.39682C2.98823 6.27835 3.07167 6.1632 3.18095 6.05456C3.23664 5.99907 3.29753 5.94741 3.36292 5.89992L3.31869 5.80728C3.00471 5.14992 2.8262 4.6037 2.906 3.91218C2.97504 3.31614 3.16968 2.8384 3.4847 2.49214C3.777 2.17104 4.291 1.84694 4.78054 1.84694C4.83258 1.84694 4.88393 1.85044 4.93406 1.85761C5.06919 1.62932 5.40035 1.11127 5.80298 0.775337C6.41186 0.26811 7.24245 0 8.20556 0C8.95999 0 9.75519 0.165965 10.4446 0.467235C11.2555 0.821827 12.3082 1.4442 12.7183 2.39633C13.1277 3.34713 12.8695 4.86731 12.6791 5.68897L12.6371 5.8706C12.7186 5.92592 12.7935 5.98741 12.8609 6.05456C12.97 6.16304 13.0534 6.27818 13.1093 6.39649C13.3155 6.83556 13.1575 7.41544 12.7335 7.77553C12.5375 7.94183 12.292 8.06597 12.0029 8.14545C11.7491 8.96844 11.3376 9.65014 10.7792 10.1729C10.498 10.436 10.1675 10.6571 9.79595 10.8307V11.7784L9.85459 12.045C9.9859 12.0661 10.1748 12.0975 10.3996 12.1371L10.5983 12.1721L10.6047 12.1826L10.9726 12.2429L10.9771 12.2438C11.0118 12.2504 11.0462 12.2573 11.0807 12.2639L11.1735 12.2821L11.2222 12.2921C11.254 12.2984 11.2875 12.3052 11.3209 12.3121L11.3359 12.3151C11.3735 12.3227 11.4101 12.3304 11.4469 12.3381L11.4627 12.3414C11.5393 12.3576 11.6167 12.3741 11.6944 12.3909L11.7062 12.3934C11.7885 12.4114 11.8698 12.4296 11.9486 12.4477L12.0823 12.4787L12.0854 12.4795C12.1257 12.489 12.1659 12.4987 12.2057 12.5084C12.2057 12.5084 12.3064 12.533 12.3266 12.538C12.3349 12.54 12.4966 12.581 12.575 12.6017L12.5958 12.6072C12.6211 12.6138 12.6466 12.6207 12.6718 12.6275C12.6718 12.6275 12.7491 12.6488 12.7616 12.6523C12.7842 12.6587 12.8064 12.6648 12.8284 12.6712L12.9701 12.7123L13.0119 12.7248L13.0123 12.7237L13.1561 12.7696L13.3209 12.822L13.32 12.8236C13.3244 12.8251 13.3355 12.829 13.3355 12.829H13.3362L13.4125 12.8531L13.4144 12.8538L13.4311 12.8618L13.4397 12.8661L13.442 12.867C13.442 12.867 13.9742 13.1446 14.1803 13.3787C15.6683 14.8574 15.9537 18.394 15.9651 18.5439L15.9998 19H0Z" fill="#1A1A1A"/>
<path d="M7.63449 13.3855L6.81396 12.7725L7.09586 13.7523L7.63449 13.3855Z" fill="white"/>
<path d="M8.78083 14.1814L8.00004 13.65L7.21924 14.1814L8.00004 16.8964L8.78083 14.1814Z" fill="white"/>
<path d="M3.99021 5.51899C4.01849 5.51016 4.04798 5.50566 4.07764 5.50566C4.45165 5.50566 4.76962 5.24888 4.83398 4.89496L5.13478 3.23914C5.15837 3.109 5.27599 3.01402 5.41355 3.01402H10.5062C10.6389 3.01402 10.7535 3.1025 10.7823 3.22681L11.1752 4.92512C11.2497 5.24672 11.5407 5.48383 11.8834 5.5015L11.9703 5.506C11.9949 5.50716 12.0192 5.51149 12.0426 5.51883C12.1129 5.54082 12.181 5.56698 12.2471 5.59664C12.4046 4.91662 12.681 3.42193 12.3092 2.55878C11.9543 1.73479 10.9995 1.17691 10.2612 0.854141C9.03599 0.318587 7.20933 0.165953 6.09356 1.09626C5.64635 1.46918 5.27113 2.15054 5.26749 2.15737C5.20521 2.27168 5.06799 2.32833 4.93876 2.29217C4.58366 2.19419 4.09655 2.46614 3.81848 2.77174C3.56399 3.05135 3.40509 3.45076 3.34629 3.95899C3.2762 4.56453 3.44742 5.05676 3.72133 5.62997C3.80755 5.58698 3.89637 5.54832 3.99021 5.51899Z" fill="#735C4F"/>
<path d="M12.0802 6.06805L12.0299 6.06539C11.408 6.0334 10.8795 5.60299 10.7445 5.01911L10.3854 3.4671H5.54989L5.27824 4.96212C5.16461 5.58799 4.61349 6.04656 3.95742 6.06955C3.78048 6.13071 3.62297 6.22719 3.49998 6.34966C3.42608 6.42315 3.37109 6.4978 3.33639 6.57161C3.21011 6.84056 3.32425 7.22114 3.60198 7.45709C3.76227 7.59323 3.97321 7.69321 4.22908 7.7542C4.33212 7.77886 4.41365 7.85468 4.44245 7.95299C4.6723 8.73766 5.05238 9.38202 5.5721 9.86842C6.18844 10.4453 7.08078 10.7909 8.02135 10.8176C8.96191 10.7909 9.85408 10.4451 10.4706 9.86842C10.9903 9.38219 11.3702 8.73783 11.6002 7.95299C11.629 7.85468 11.7104 7.77886 11.8136 7.7542C12.0695 7.69321 12.2804 7.59323 12.4407 7.45709C12.7184 7.22114 12.8326 6.84056 12.7065 6.57178C12.6718 6.49796 12.6166 6.42331 12.5429 6.34983C12.4187 6.22619 12.2594 6.12921 12.0808 6.06805H12.0802ZM5.60003 8.83314C5.23955 8.83314 4.94743 8.55236 4.94743 8.20627C4.94743 7.86018 5.23973 7.5794 5.60003 7.5794C5.96033 7.5794 6.25263 7.86018 6.25263 8.20627C6.25263 8.55236 5.96033 8.83314 5.60003 8.83314ZM5.91609 6.51146C5.91609 6.27301 6.11732 6.07972 6.36556 6.07972C6.6138 6.07972 6.81502 6.27301 6.81502 6.51146C6.81502 6.74991 6.6138 6.9432 6.36556 6.9432C6.11732 6.9432 5.91609 6.74991 5.91609 6.51146ZM9.22715 6.51146C9.22715 6.27301 9.42838 6.07972 9.67662 6.07972C9.92485 6.07972 10.1261 6.27301 10.1261 6.51146C10.1261 6.74991 9.92485 6.9432 9.67662 6.9432C9.42838 6.9432 9.22715 6.74991 9.22715 6.51146ZM10.4421 8.83314C10.0817 8.83314 9.78955 8.55236 9.78955 8.20627C9.78955 7.86018 10.0818 7.5794 10.4421 7.5794C10.8024 7.5794 11.0947 7.86018 11.0947 8.20627C11.0947 8.55236 10.8024 8.83314 10.4421 8.83314Z" fill="#FAC6D0"/>
<path d="M9.186 12.7725L8.36548 13.3855L8.90411 13.7523L9.186 12.7725Z" fill="white"/>
<path d="M9.35331 10.9224C8.94426 11.1133 8.48178 11.2236 8.00595 11.2363C8.00404 11.2363 8.00196 11.2363 8.00005 11.2363C7.99814 11.2363 7.99606 11.2363 7.99415 11.2363C7.51832 11.2236 7.05602 11.1133 6.64697 10.9225V12.1173L8.00023 13.1284L9.35348 12.1173V10.9225L9.35331 10.9224Z" fill="#FAC6D0"/>
<path d="M5.52758 14.6837L7.53916 16.8668L6.27073 12.4559C6.133 12.4779 5.92761 12.5115 5.68041 12.5552L5.34717 13.0981L6.08165 13.7094C6.17064 13.7836 6.18226 13.9122 6.10784 14L5.52758 14.6837Z" fill="#91C0E8"/>
<path d="M9.9182 13.7096L10.6527 13.0982L10.3194 12.5552C10.0722 12.5115 9.86703 12.4779 9.72929 12.4559L8.46069 16.8669L10.4724 14.6837L9.89218 14C9.81776 13.9122 9.82939 13.7838 9.91838 13.7094L9.9182 13.7096Z" fill="#91C0E8"/>
<path d="M7.78219 18.1258V17.7621L7.50359 17.4598L5.07863 14.828C5.01496 14.759 5.00681 14.6592 5.05486 14.5821C5.06024 14.5734 5.06614 14.5649 5.0729 14.5569L5.23614 14.3646L5.63651 13.8929L4.92459 13.3003C4.88382 13.2664 4.85901 13.2204 4.85173 13.172C4.84566 13.132 4.85155 13.0904 4.87046 13.0524C4.87324 13.0467 4.87636 13.0412 4.87966 13.0357L5.10985 12.6606C4.50617 12.7773 3.79667 12.9316 3.19334 13.1092C3.03548 13.1557 2.8849 13.2037 2.74543 13.2532C2.74439 13.2535 2.74352 13.254 2.74248 13.2544C2.73901 13.2555 2.73537 13.2565 2.73208 13.258C0.81712 14.0975 0.476074 18.5749 0.476074 18.5749H7.78201V18.1258H7.78219Z" fill="#91C0E8"/>
<path d="M5.84972 8.78523C6.1827 8.65274 6.34083 8.28604 6.2029 7.96619C6.06498 7.64633 5.68323 7.49444 5.35024 7.62693C5.01725 7.75942 4.85913 8.12612 4.99705 8.44597C5.13498 8.76583 5.51673 8.91772 5.84972 8.78523Z" fill="#F388A5"/>
<path d="M11.0449 8.44598C11.1829 8.12613 11.0247 7.75943 10.6918 7.62694C10.3588 7.49445 9.97702 7.64634 9.8391 7.9662C9.70117 8.28605 9.85929 8.65275 10.1923 8.78524C10.5253 8.91773 10.907 8.76584 11.0449 8.44598Z" fill="#F388A5"/>
<path d="M6.81519 6.51145C6.81519 6.273 6.61396 6.07971 6.36573 6.07971C6.11749 6.07971 5.91626 6.273 5.91626 6.51145C5.91626 6.7499 6.11749 6.9432 6.36573 6.9432C6.61396 6.9432 6.81519 6.7499 6.81519 6.51145Z" fill="#1A1A1A"/>
<path d="M10.1262 6.51145C10.1262 6.273 9.925 6.07971 9.67676 6.07971C9.42852 6.07971 9.22729 6.273 9.22729 6.51145C9.22729 6.7499 9.42852 6.9432 9.67676 6.9432C9.925 6.9432 10.1262 6.7499 10.1262 6.51145Z" fill="#1A1A1A"/>
<path d="M11.1439 13.0908C11.1433 13.0885 11.1428 13.0863 11.1421 13.084C11.1427 13.0863 11.1433 13.0885 11.1439 13.0908Z" fill="#91C0E8"/>
<path d="M11.1293 13.0518C11.1284 13.05 11.1275 13.0484 11.1265 13.0466C11.1274 13.0484 11.1284 13.05 11.1292 13.0518H11.1293Z" fill="#91C0E8"/>
<path d="M11.1385 13.0735C11.1379 13.0717 11.1373 13.0699 11.1367 13.0682C11.1373 13.07 11.1379 13.0718 11.1385 13.0735Z" fill="#91C0E8"/>
<path d="M11.1331 13.2245C11.1405 13.2077 11.1457 13.1901 11.1483 13.1721C11.1455 13.1901 11.1405 13.2077 11.1331 13.2245Z" fill="#91C0E8"/>
<path d="M11.1475 13.1078C11.1471 13.1053 11.1466 13.1026 11.146 13.1C11.1465 13.1026 11.1471 13.1053 11.1475 13.1078Z" fill="#91C0E8"/>
<path d="M11.1497 13.1257C11.1494 13.1224 11.149 13.1191 11.1487 13.1157C11.149 13.1191 11.1495 13.1224 11.1497 13.1257Z" fill="#91C0E8"/>
<path d="M12.2153 12.9496C12.2153 12.9496 12.2165 12.9499 12.217 12.95C12.2164 12.95 12.2158 12.9497 12.2153 12.9496Z" fill="#91C0E8"/>
<path d="M11.229 12.728C11.2342 12.729 11.2396 12.7301 11.2448 12.7311C11.2394 12.73 11.2342 12.729 11.229 12.728Z" fill="#91C0E8"/>
<path d="M10.9526 14.7829C10.9537 14.7808 10.9548 14.7786 10.9558 14.7764C10.9548 14.7786 10.9539 14.7807 10.9526 14.7829Z" fill="#91C0E8"/>
<path d="M10.9602 14.7672C10.9613 14.7648 10.9622 14.7624 10.9629 14.7599C10.962 14.7623 10.9611 14.7648 10.9602 14.7672Z" fill="#91C0E8"/>
<path d="M10.9336 14.8134C10.9347 14.8119 10.9357 14.8104 10.9368 14.8089C10.9357 14.8104 10.9348 14.8119 10.9336 14.8134Z" fill="#91C0E8"/>
<path d="M10.9707 14.7359C10.9716 14.7326 10.9723 14.7292 10.9728 14.7259C10.9721 14.7292 10.9714 14.7326 10.9707 14.7359Z" fill="#91C0E8"/>
<path d="M10.9438 14.7985C10.9451 14.7966 10.9461 14.7948 10.9472 14.7928C10.9461 14.7948 10.9451 14.7967 10.9438 14.7985Z" fill="#91C0E8"/>
<path d="M10.9608 14.6119C10.9587 14.6069 10.9565 14.6019 10.9539 14.5969C10.9565 14.6018 10.9587 14.6068 10.9608 14.6119Z" fill="#91C0E8"/>
<path d="M11.093 13.2839C11.0965 13.2804 11.0998 13.2767 11.1029 13.2729C11.0998 13.2767 11.0963 13.2802 11.093 13.2839Z" fill="#91C0E8"/>
<path d="M11.1052 13.2699C11.1083 13.2659 11.1115 13.2619 11.1144 13.2577C11.1116 13.2619 11.1085 13.2659 11.1052 13.2699Z" fill="#91C0E8"/>
<path d="M11.125 13.2404C11.1278 13.2354 11.1304 13.2302 11.1328 13.225C11.1306 13.2302 11.1278 13.2354 11.125 13.2404Z" fill="#91C0E8"/>
<path d="M10.9537 14.5966C10.9511 14.5916 10.9485 14.5868 10.9456 14.5821C10.9485 14.5869 10.9513 14.5918 10.9537 14.5966Z" fill="#91C0E8"/>
<path d="M10.9736 14.7201C10.9742 14.7162 10.9748 14.7124 10.9752 14.7086C10.9748 14.7124 10.9743 14.7162 10.9736 14.7201Z" fill="#91C0E8"/>
<path d="M11.1169 12.7053C11.1215 12.7062 11.126 12.7072 11.1303 12.708C11.1258 12.7072 11.1213 12.7062 11.1169 12.7053Z" fill="#91C0E8"/>
<path d="M13.268 13.2581C13.2645 13.2566 13.261 13.2556 13.2576 13.2544C13.2623 13.2561 13.2666 13.2579 13.2713 13.2596C13.2702 13.2591 13.2692 13.2586 13.268 13.2581Z" fill="#91C0E8"/>
<path d="M12.9705 13.1589C12.9743 13.16 12.9783 13.1612 12.9821 13.1625C12.9783 13.1614 12.9743 13.1602 12.9705 13.1589Z" fill="#91C0E8"/>
<path d="M13.0732 13.1915C13.0869 13.196 13.1005 13.2004 13.114 13.2049C13.1005 13.2004 13.0869 13.1959 13.0732 13.1915Z" fill="#91C0E8"/>
<path d="M10.9607 14.6121C10.9732 14.6421 10.9779 14.674 10.9754 14.7057C10.978 14.674 10.9732 14.6421 10.9607 14.6121Z" fill="#91C0E8"/>
<path d="M11.1501 13.1302C11.151 13.1442 11.1503 13.1582 11.1482 13.1721C11.1503 13.1582 11.1508 13.1442 11.1501 13.1302Z" fill="#91C0E8"/>
<path d="M13.2573 13.2542C13.2563 13.2539 13.2554 13.2534 13.2546 13.253C13.2341 13.2459 13.2134 13.2385 13.1926 13.2314C13.2134 13.2385 13.2341 13.2457 13.2546 13.253C13.2556 13.2534 13.2565 13.2539 13.2575 13.2542H13.2573Z" fill="#91C0E8"/>
<path d="M12.8067 13.1093C12.8067 13.1093 12.8065 13.1093 12.8064 13.1093C12.8069 13.1093 12.8072 13.1096 12.8076 13.1096C12.8073 13.1096 12.807 13.1094 12.8067 13.1093Z" fill="#91C0E8"/>
<path d="M13.1328 13.2114C13.1502 13.2172 13.1672 13.2229 13.1842 13.2287C13.1672 13.2229 13.15 13.217 13.1328 13.2114Z" fill="#91C0E8"/>
<path d="M10.7639 14.3647L10.3635 13.8929L11.0755 13.3004C11.0755 13.3004 11.0756 13.3002 11.0758 13.3C11.0758 13.3 11.0756 13.3002 11.0755 13.3004L10.3635 13.8929L10.9273 14.557L10.7641 14.3647H10.7639Z" fill="#91C0E8"/>
<path d="M10.9542 14.5977C10.9542 14.5977 10.9542 14.5971 10.9536 14.5966C10.9536 14.5966 10.9536 14.5971 10.9542 14.5977Z" fill="#91C0E8"/>
<path d="M11.0924 13.2839C11.0915 13.2848 11.0908 13.2858 11.0898 13.2869C11.0908 13.286 11.0915 13.2849 11.0924 13.2839Z" fill="#91C0E8"/>
<path d="M11.1145 13.2575C11.1145 13.2575 11.1153 13.2562 11.1157 13.2556C11.1153 13.2562 11.115 13.2569 11.1145 13.2575Z" fill="#91C0E8"/>
<path d="M10.9753 14.7083C10.9753 14.7074 10.9753 14.7066 10.9755 14.7057C10.9755 14.7066 10.9755 14.7074 10.9753 14.7083Z" fill="#91C0E8"/>
<path d="M10.937 14.8088C10.9394 14.8057 10.9417 14.8023 10.9438 14.799C10.9417 14.8023 10.9393 14.8055 10.937 14.8088Z" fill="#91C0E8"/>
<path d="M11.1203 13.0357C11.1226 13.0392 11.1243 13.0429 11.1264 13.0466C11.1245 13.0429 11.1226 13.0392 11.1203 13.0357Z" fill="#91C0E8"/>
<path d="M10.9729 14.7252C10.9732 14.7235 10.9735 14.7218 10.9737 14.72C10.9734 14.7218 10.9732 14.7235 10.9729 14.7252Z" fill="#91C0E8"/>
<path d="M10.9688 14.7423C10.9694 14.7402 10.9698 14.738 10.9703 14.7359C10.9698 14.738 10.9692 14.7402 10.9688 14.7423Z" fill="#91C0E8"/>
<path d="M10.9216 14.828C10.9257 14.8235 10.9297 14.8187 10.9334 14.8138C10.9297 14.8187 10.9257 14.8233 10.9216 14.828L8.21802 17.7621L8.49661 17.4598L10.9216 14.828Z" fill="#91C0E8"/>
<path d="M11.8501 12.8624C11.8905 12.8718 11.9309 12.8811 11.9712 12.8906C11.9308 12.8811 11.8903 12.8718 11.8501 12.8624Z" fill="#91C0E8"/>
<path d="M11.2446 12.7311C11.2805 12.7385 11.3166 12.746 11.3529 12.7536C11.3166 12.7461 11.2805 12.7386 11.2446 12.7311Z" fill="#91C0E8"/>
<path d="M12.9822 13.1625C12.9931 13.166 13.004 13.1695 13.015 13.1729C13.004 13.1694 12.9931 13.1659 12.9822 13.1625Z" fill="#91C0E8"/>
<path d="M11.0142 12.6848C11.0482 12.6915 11.0825 12.6983 11.117 12.7053C11.0825 12.6983 11.0482 12.6916 11.0142 12.6848Z" fill="#91C0E8"/>
<path d="M11.1304 12.708C11.163 12.7145 11.1958 12.7212 11.2287 12.728C11.1958 12.7213 11.163 12.7147 11.1304 12.708Z" fill="#91C0E8"/>
<path d="M13.0476 13.1833C13.0561 13.1862 13.0648 13.1888 13.0733 13.1917C13.0648 13.1888 13.0563 13.1862 13.0476 13.1833Z" fill="#91C0E8"/>
<path d="M11.3687 12.7568C11.4439 12.7726 11.5201 12.7888 11.5964 12.8054C11.5199 12.7888 11.4439 12.7724 11.3687 12.7568Z" fill="#91C0E8"/>
<path d="M12.4575 13.0117C12.5765 13.0432 12.6933 13.0757 12.8062 13.109C12.6933 13.0757 12.5765 13.0434 12.4575 13.0117Z" fill="#91C0E8"/>
<path d="M11.1243 13.2415C11.1243 13.2415 11.1247 13.2408 11.1249 13.2404C11.1247 13.2408 11.1244 13.2411 11.1243 13.2415Z" fill="#91C0E8"/>
<path d="M12.8076 13.1094C12.863 13.1257 12.9173 13.1422 12.9705 13.1589C12.9173 13.1422 12.8628 13.1257 12.8076 13.1094Z" fill="#91C0E8"/>
<path d="M11.1501 13.1298C11.1501 13.1284 11.1501 13.1271 11.1499 13.1257C11.1499 13.1271 11.1499 13.1284 11.1501 13.1298Z" fill="#91C0E8"/>
<path d="M13.8527 13.6646C13.6891 13.4755 13.4976 13.3428 13.2712 13.2595C13.4839 13.3533 13.6772 13.4921 13.8527 13.6646Z" fill="#91C0E8"/>
<path d="M11.1328 13.225C11.1328 13.225 11.1328 13.2247 11.133 13.2245C11.133 13.2245 11.133 13.2248 11.1328 13.225Z" fill="#91C0E8"/>
<path d="M13.2582 13.2551L13.2573 13.2542H13.2582V13.2551Z" fill="#91C0E8"/>
<path d="M11.142 13.0841C11.1409 13.0808 11.1397 13.0774 11.1387 13.0741C11.1399 13.0774 11.1411 13.0808 11.142 13.0841Z" fill="#91C0E8"/>
<path d="M11.1366 13.0681C11.1345 13.0628 11.1322 13.0576 11.1296 13.0524C11.1322 13.0576 11.1345 13.0629 11.1366 13.0681Z" fill="#91C0E8"/>
<path d="M11.1459 13.0992C11.1454 13.0966 11.1448 13.0941 11.144 13.0916C11.1447 13.0941 11.1453 13.0966 11.1459 13.0992Z" fill="#91C0E8"/>
<path d="M13.1138 13.205C13.1202 13.2072 13.1264 13.2092 13.1329 13.2113C13.1266 13.2092 13.1202 13.2072 13.1138 13.205Z" fill="#91C0E8"/>
<path d="M10.8904 12.6606C10.9239 12.6671 10.9579 12.6738 10.9919 12.6805C10.9577 12.6738 10.9239 12.6671 10.8904 12.6606Z" fill="#91C0E8"/>
<path d="M13.8528 13.6646C13.6772 13.4921 13.484 13.3533 13.2713 13.2595C13.2668 13.2579 13.2623 13.256 13.2576 13.2544C13.2565 13.254 13.2557 13.2535 13.2546 13.2532C13.2342 13.246 13.2135 13.2387 13.1927 13.2315C13.1899 13.2305 13.1872 13.2297 13.1844 13.2287C13.1674 13.2229 13.1502 13.217 13.133 13.2114C13.1268 13.2092 13.1204 13.2072 13.114 13.205C13.1004 13.2005 13.0869 13.196 13.0732 13.1917C13.0647 13.1889 13.0562 13.1862 13.0475 13.1834C13.0368 13.1799 13.0258 13.1764 13.0149 13.1729C13.004 13.1694 12.993 13.1659 12.9821 13.1625C12.9783 13.1614 12.9743 13.1602 12.9705 13.1589C12.9171 13.1422 12.8628 13.1257 12.8076 13.1094C12.8071 13.1094 12.8067 13.1091 12.8062 13.1091C12.6933 13.0757 12.5765 13.0434 12.4575 13.0117H12.4574C12.3783 12.9907 12.2981 12.9702 12.2174 12.9501C12.2168 12.9501 12.2161 12.9498 12.2155 12.9496C12.1349 12.9294 12.0535 12.9099 11.9722 12.8906C11.972 12.8906 11.9716 12.8906 11.9715 12.8906C11.931 12.8811 11.8906 12.8718 11.8504 12.8624C11.849 12.8621 11.8474 12.8618 11.846 12.8614C11.7668 12.8433 11.6877 12.8256 11.6087 12.8083C11.6047 12.8074 11.6008 12.8064 11.5968 12.8056C11.5203 12.789 11.4443 12.7726 11.369 12.757C11.3638 12.7558 11.3586 12.7548 11.3534 12.7536C11.3171 12.7461 11.281 12.7386 11.2451 12.7311C11.2398 12.73 11.2346 12.729 11.2294 12.728C11.1964 12.7213 11.1636 12.7146 11.131 12.708C11.1265 12.7071 11.122 12.7061 11.1176 12.7053C11.0831 12.6983 11.0488 12.6916 11.0148 12.6848C11.0073 12.6833 11 12.682 10.9926 12.6805C10.9584 12.6738 10.9246 12.6671 10.8911 12.6606C10.8911 12.6606 10.8909 12.6606 10.8907 12.6606L11.1209 13.0357C11.1232 13.0392 11.1249 13.0429 11.127 13.0466C11.128 13.0486 11.1293 13.0504 11.1303 13.0524C11.1329 13.0576 11.1352 13.0629 11.1372 13.0681C11.1379 13.0701 11.1386 13.0721 11.1393 13.0739C11.1405 13.0772 11.1418 13.0806 11.1426 13.0839C11.1433 13.0864 11.144 13.0889 11.1447 13.0914C11.1454 13.0942 11.1461 13.0971 11.1468 13.0999C11.1475 13.1027 11.148 13.1057 11.1485 13.1086C11.1489 13.1109 11.1492 13.1132 11.1496 13.1155C11.1501 13.1189 11.1504 13.1222 11.1506 13.1255C11.1506 13.127 11.1506 13.1285 11.1508 13.13C11.1516 13.144 11.1509 13.158 11.1489 13.1719C11.1461 13.1899 11.1411 13.2075 11.1336 13.2244C11.1336 13.2244 11.1336 13.2247 11.1334 13.2249C11.131 13.23 11.1286 13.2352 11.1256 13.2402C11.1254 13.2407 11.1251 13.241 11.1249 13.2415C11.1223 13.2462 11.1194 13.2509 11.1164 13.2554C11.1159 13.256 11.1156 13.2569 11.115 13.2575C11.1121 13.2617 11.1091 13.2657 11.1058 13.2697C11.105 13.2707 11.1043 13.2717 11.1034 13.2727C11.1003 13.2765 11.0968 13.28 11.0935 13.2837C11.0925 13.2847 11.0916 13.2858 11.0906 13.287C11.0861 13.2915 11.0814 13.2957 11.0765 13.2998C11.0765 13.2998 11.0764 13.3 11.0762 13.3002L10.3642 13.8927L10.7646 14.3645L10.9279 14.5567C10.9313 14.5609 10.9346 14.5651 10.9377 14.5696C10.9407 14.5736 10.9433 14.5777 10.9459 14.5819C10.9488 14.5867 10.9516 14.5916 10.9541 14.5964C10.9541 14.5964 10.9541 14.5966 10.9542 14.5967C10.9568 14.6016 10.9591 14.6066 10.9612 14.6117C10.9735 14.6417 10.9785 14.6737 10.9759 14.7054C10.9759 14.7064 10.9759 14.7072 10.9757 14.7082C10.9754 14.712 10.9749 14.7159 10.9742 14.7197C10.9738 14.7217 10.9737 14.7235 10.9733 14.7255C10.9726 14.7289 10.9719 14.7322 10.9712 14.7355C10.9707 14.7379 10.97 14.7404 10.9695 14.7427C10.9686 14.7457 10.9678 14.7487 10.9667 14.7517C10.9658 14.7544 10.965 14.757 10.9639 14.7597C10.9629 14.7624 10.9619 14.7652 10.9608 14.7679C10.9596 14.7707 10.9584 14.7735 10.957 14.7764C10.9558 14.7789 10.9547 14.7812 10.9534 14.7837C10.9518 14.7867 10.9501 14.7897 10.9483 14.7927C10.9471 14.7949 10.9459 14.797 10.9445 14.799C10.9424 14.8024 10.94 14.8055 10.9377 14.8089C10.9365 14.8105 10.9355 14.8122 10.9341 14.8139C10.9305 14.8187 10.9265 14.8234 10.9223 14.828L8.49735 17.4598L8.21875 17.7621V18.1258V18.5442V18.5749H8.86476C8.86476 18.3664 9.04066 18.1975 9.25767 18.1975C9.47469 18.1975 9.65059 18.3664 9.65059 18.5749H14.6127H15.5247C15.5247 18.5749 15.2555 15.0425 13.8535 13.6646H13.8528Z" fill="#91C0E8"/>
<path d="M8.02119 9.4117C7.57086 9.4117 7.1462 9.25523 6.8147 8.96912L7.08844 8.70618C7.34674 8.92263 7.67425 9.04061 8.02119 9.04061C8.36814 9.04061 8.69565 8.92246 8.95412 8.70618L9.22786 8.96912C8.89619 9.25523 8.47153 9.4117 8.02137 9.4117H8.02119Z" fill="#1A1A1A"/>
<path d="M7.52726 7.28396C7.49083 7.24897 7.4707 7.20231 7.4707 7.15282C7.4707 7.10333 7.49083 7.05667 7.52726 7.02168L8.1724 6.40198L8.44561 6.66442L7.93717 7.15282L8.44561 7.64122L8.1724 7.90366L7.52726 7.28396Z" fill="#1A1A1A"/>
<path d="M7.0949 1.07524L7.48695 0.809631C7.90363 1.37751 9.00396 2.08936 9.70825 2.24683L9.59931 2.69557C8.79041 2.51461 7.57316 1.7271 7.09473 1.07508L7.0949 1.07524Z" fill="#1A1A1A"/>
</g>
<defs>
<clipPath id="clip0_204_439">
<rect width="16" height="19" fill="white"/>
</clipPath>
</defs>
</svg>
