<svg width="14" height="19" viewBox="0 0 14 19" fill="none" xmlns="http://www.w3.org/2000/svg">
<g clip-path="url(#clip0_199_636)">
<path d="M13.9907 16.321C13.9566 15.6326 13.7318 14.9719 13.3405 14.4099C13.3243 14.3867 13.3078 14.3637 13.2912 14.3409L13.3882 14.1529C13.5084 13.9202 13.4197 13.6941 13.2972 13.3809C13.0995 12.876 12.7316 11.9361 12.7935 10.2029C12.8414 8.86283 12.0521 7.88509 11.8429 7.65037C12.2142 7.28114 12.3473 6.72428 12.1575 6.29939C12.1036 6.17911 12.0227 6.06193 11.9167 5.95114C11.9123 5.94658 11.9078 5.9422 11.9035 5.93782V5.23422C11.9036 2.34808 9.70387 0 7.00009 0C4.2963 0 2.09653 2.34808 2.09653 5.23422V5.93782C2.09219 5.9422 2.08786 5.94658 2.08352 5.95096C1.9773 6.06211 1.89619 6.17947 1.84253 6.29957C1.644 6.74381 1.79864 7.33298 2.20998 7.70038C2.21251 7.70257 2.21521 7.70476 2.21774 7.70695C1.95616 8.01705 1.27168 8.95227 1.3163 10.2027C1.37826 11.9361 1.01028 12.8758 0.81265 13.3807C0.689988 13.6937 0.60147 13.92 0.721602 14.1527L0.773991 14.2544C0.734609 14.3049 0.696492 14.3568 0.659639 14.4097C0.268532 14.9717 0.0436232 15.6326 0.00948039 16.3208C-0.022314 16.9627 0.024113 17.6218 0.175317 18.6717L0.222647 18.9998H13.7775L13.8249 18.6717C13.9761 17.6218 14.0225 16.9626 13.9907 16.3207V16.321Z" fill="#1A1A1A"/>
<path d="M2.70767 5.49925C2.74253 5.4914 6.21137 4.69453 7.58286 2.50086C7.64681 2.39883 7.76442 2.34353 7.88238 2.36105C8.00071 2.37803 8.09826 2.46381 8.13132 2.57989C8.1613 2.68411 8.89763 5.14571 11.2708 5.49523C11.2878 5.49779 11.3044 5.50162 11.3207 5.50691C11.3904 5.52973 11.4582 5.5571 11.5243 5.5874V5.23405C11.5243 2.55927 9.49468 0.383118 7.00027 0.383118C4.50586 0.383118 2.47607 2.55927 2.47607 5.23405V5.5874C2.54201 5.5571 2.60994 5.52973 2.67967 5.50691C2.68888 5.50399 2.69845 5.50125 2.70785 5.49906L2.70767 5.49925Z" fill="#6C461B"/>
<path d="M9.51549 10.0181C10.0491 9.49304 10.4393 8.79692 10.6756 7.94894C10.7051 7.8429 10.7887 7.76095 10.8948 7.7343C11.1574 7.66842 11.3742 7.56037 11.5388 7.41326C11.824 7.15846 11.9413 6.74744 11.8117 6.45705C11.776 6.37711 11.7196 6.29644 11.6437 6.21722C11.5131 6.08034 11.3449 5.97393 11.156 5.90822C9.12908 5.59667 8.14634 3.98358 7.75741 3.11353C6.15016 5.11008 3.13205 5.84106 2.85385 5.90494C2.66091 5.97028 2.48929 6.07815 2.35634 6.21722C2.28046 6.29662 2.22392 6.37729 2.18833 6.45723C2.05863 6.74744 2.17605 7.15865 2.46129 7.41326C2.62605 7.56037 2.84265 7.66842 3.10549 7.7343C3.21135 7.76095 3.29499 7.8429 3.32462 7.94913C3.56073 8.79692 3.95111 9.49304 4.48475 10.0181C5.11775 10.6411 6.03419 11.0145 7.00012 11.0435C7.96606 11.0145 8.88249 10.6411 9.51549 10.0181Z" fill="#FAC6D0"/>
<path d="M4.51365 8.96377C4.8839 8.96377 5.18404 8.66052 5.18404 8.28645C5.18404 7.91238 4.8839 7.60913 4.51365 7.60913C4.14341 7.60913 3.84326 7.91238 3.84326 8.28645C3.84326 8.66052 4.14341 8.96377 4.51365 8.96377Z" fill="#F388A5"/>
<path d="M9.4868 8.96377C9.85704 8.96377 10.1572 8.66052 10.1572 8.28645C10.1572 7.91238 9.85704 7.60913 9.4868 7.60913C9.11655 7.60913 8.81641 7.91238 8.81641 8.28645C8.81641 8.66052 9.11655 8.96377 9.4868 8.96377Z" fill="#F388A5"/>
<path d="M5.76179 6.4016C5.7669 6.14411 5.56445 5.93118 5.30958 5.92601C5.05472 5.92084 4.84397 6.12539 4.83885 6.38288C4.83374 6.64038 5.0362 6.85331 5.29106 6.85848C5.54592 6.86365 5.75667 6.6591 5.76179 6.4016Z" fill="#1A1A1A"/>
<path d="M8.70033 6.85808C8.95524 6.85808 9.16189 6.64929 9.16189 6.39175C9.16189 6.1342 8.95524 5.92542 8.70033 5.92542C8.44542 5.92542 8.23877 6.1342 8.23877 6.39175C8.23877 6.64929 8.44542 6.85808 8.70033 6.85808Z" fill="#1A1A1A"/>
<path d="M6.71587 2.29038L6.30761 1.99945C5.87368 2.62147 4.72782 3.40118 3.99438 3.57366L4.10783 4.06518C4.9502 3.86696 6.21782 3.00439 6.71605 2.2902L6.71587 2.29038Z" fill="#1A1A1A"/>
<path d="M10.6244 15.9598C9.60593 15.3035 8.597 15.7499 7.17384 16.5057C7.13012 16.5289 6.93827 16.5289 6.89456 16.5057C5.4714 15.7499 4.46229 15.3037 3.44396 15.9598C2.93778 16.2861 2.47568 16.8821 2.69607 17.576L2.90075 18.6167H11.1678L11.3725 17.576C11.5929 16.8821 11.1308 16.2861 10.6246 15.9598H10.6244Z" fill="#FCF6F0"/>
<path d="M13.6118 16.3402C13.5497 15.0879 12.7828 13.9775 11.6328 13.5062C11.063 13.2728 10.3709 13.0899 9.5582 12.9587C9.50725 12.9505 9.46444 12.9435 9.43066 12.9375C8.8076 12.8284 8.35543 12.2856 8.35543 11.6468V11.1848C7.94301 11.3779 7.48091 11.4889 7.00634 11.502C7.00417 11.502 7.00218 11.502 7.00002 11.502C6.99785 11.502 6.99586 11.502 6.99369 11.502C6.51913 11.4887 6.0572 11.3777 5.6446 11.1848V11.6468C5.6446 12.2856 5.19243 12.8284 4.56937 12.9375C4.53559 12.9434 4.49278 12.9505 4.44183 12.9587C3.62909 13.0899 2.93702 13.2728 2.36725 13.5062C1.21723 13.9775 0.450376 15.0879 0.388232 16.3402C0.355896 16.994 0.412801 17.66 0.550637 18.6167H2.44782L2.26013 17.705C2.1707 16.7518 2.37574 16.1044 3.19951 15.5734C4.38583 14.8087 5.52122 15.2663 6.97382 16.0303C6.98177 16.0341 6.9908 16.0361 7.00002 16.0361C7.00923 16.0361 7.01808 16.0341 7.02621 16.0303C8.47882 15.2663 9.6142 14.8087 10.8005 15.5734C11.6243 16.1046 11.8295 16.7519 11.7399 17.705L11.5522 18.6167H13.4494C13.5872 17.6598 13.6441 16.994 13.6118 16.3402Z" fill="#FAC6D0"/>
<path d="M13.0518 13.9757C13.1806 13.7258 12.3204 12.8172 12.4143 10.189C12.4631 8.82631 11.5243 7.86682 11.5243 7.86682C11.4386 7.94074 11.0249 8.0884 11.0249 8.0884C10.7256 9.76427 9.59347 10.5228 9.09795 10.7796C9.08638 10.7625 8.93283 10.8366 8.86328 10.8869V11.6467C8.86328 12.062 9.1572 12.4148 9.56203 12.4858C9.61695 12.4954 9.70746 12.5053 9.82199 12.5183C10.3966 12.5823 11.4683 12.866 12.399 13.4697L12.8518 13.8004C12.9201 13.8568 12.987 13.9152 13.0518 13.9757Z" fill="#6C461B"/>
<path d="M1.0581 13.9757C0.929295 13.7258 1.78955 12.8172 1.69561 10.189C1.64684 8.82631 2.58567 7.86682 2.58567 7.86682C2.6713 7.94074 3.08499 8.0884 3.08499 8.0884C3.38433 9.76427 4.51646 10.5228 5.01198 10.7796C5.02354 10.7625 5.17709 10.8366 5.24664 10.8869V11.6467C5.24664 12.062 4.95273 12.4148 4.54789 12.4858C4.49297 12.4954 4.40247 12.5053 4.28794 12.5183C3.71329 12.5823 2.64167 12.866 1.71097 13.4697L1.25808 13.8004C1.18979 13.8568 1.12295 13.9152 1.0581 13.9757Z" fill="#6C461B"/>
<path d="M7.00007 9.5456C6.5311 9.5456 6.08887 9.37422 5.74365 9.06084L6.02872 8.77283C6.29771 9.00992 6.63877 9.13914 7.00007 9.13914C7.36137 9.13914 7.70244 9.00973 7.97161 8.77283L8.25667 9.06084C7.91127 9.37422 7.46904 9.5456 7.00025 9.5456H7.00007Z" fill="#1A1A1A"/>
<path d="M6.48565 7.21508C6.44771 7.17676 6.42676 7.12565 6.42676 7.07144C6.42676 7.01724 6.44771 6.96613 6.48565 6.9278L7.15749 6.24902L7.44201 6.53649L6.91252 7.07144L7.44201 7.6064L7.15749 7.89386L6.48565 7.21508Z" fill="#1A1A1A"/>
</g>
<defs>
<clipPath id="clip0_199_636">
<rect width="14" height="19" fill="white"/>
</clipPath>
</defs>
</svg>
